<?xml version="1.0" encoding="utf-8"?><svg fill="none" height="74" viewBox="0 0 374 74" width="374" xmlns="http://www.w3.org/2000/svg" xmlns:xlink="http://www.w3.org/1999/xlink"><linearGradient id="a" gradientUnits="userSpaceOnUse" x1="185.067" x2="164.282" y1="10.0024" y2="71.4065"><stop offset="0" stop-color="#114a8b"/><stop offset="1" stop-color="#0669bc"/></linearGradient><linearGradient id="b" gradientUnits="userSpaceOnUse" x1="191.56" x2="186.752" y1="38.6182" y2="40.2439"><stop offset="0" stop-opacity=".3"/><stop offset=".071" stop-opacity=".2"/><stop offset=".321" stop-opacity=".1"/><stop offset=".623" stop-opacity=".05"/><stop offset="1" stop-opacity="0"/></linearGradient><linearGradient id="c" gradientUnits="userSpaceOnUse" x1="188.916" x2="211.731" y1="8.21112" y2="68.9969"><stop offset="0" stop-color="#3ccbf4"/><stop offset="1" stop-color="#2892df"/></linearGradient><g clip-rule="evenodd" fill-rule="evenodd"><path d="m66.0471 36.493c.7529.4733 1.9164.8791 3.3537 1.1496 1.4373.4057 2.9431.4733 4.5173.4733s2.8747-.2029 4.1067-.541c1.232-.4057 2.327-.9467 3.2853-1.6229.8897-.6762 1.6426-1.4876 2.1217-2.5696.4791-1.0819.7529-2.0962.7529-3.381 0-1.4876-.4791-2.8401-1.3689-4.0572-.8897-1.1496-2.3955-2.0963-4.5173-2.7725l-4.1066-1.3524c-1.5058-.4733-2.6693-1.0143-3.2853-1.6229-.5476-.541-.8898-1.2172-.8898-2.0962 0-1.1496.4791-2.0963 1.3689-2.5696.9582-.541 2.1902-.8791 3.9013-.8791 2.1218 0 3.9013.4057 5.6808 1.1496.4791.2028.8898.4057 1.1636.4057.4791 0 .6844-.2705.6844-.9467v-1.1495c0-.4058-.0684-.7439-.2737-.9467-.2054-.2705-.4792-.541-.8898-.7439-.2738-.2028-.7529-.4057-1.232-.4733-.4791-.2029-1.0267-.2705-1.6427-.4734-.5475-.0676-1.232-.2704-1.9164-.2704-.6844-.2029-1.3689-.2029-1.9849-.2029-1.3688 0-2.4639.2029-3.6275.4733-1.1635.4058-2.1902.8791-3.08 1.4877-.8897.6762-1.5057 1.42-2.1217 2.3667-.5476.9467-.7529 1.961-.7529 3.2458 0 1.4877.4791 2.9077 1.4373 4.1925.9582 1.3524 2.464 2.2991 4.7226 2.9077l4.2436 1.3524c1.4373.4733 2.3955.9467 2.9431 1.4877.5475.5409.7528 1.2171.7528 1.961 0 1.1495-.4791 2.0962-1.5057 2.7724-1.0267.6762-2.3956.9467-4.312.9467-1.1635 0-2.3271-.0676-3.4222-.4057-1.1635-.2029-2.1902-.541-3.2853-1.0143-.2738-.0677-.5476-.2029-.7529-.2705s-.4107-.0676-.5475-.0676c-.4792 0-.6845.2704-.6845.9466v1.4201c0 .2705.0685.541.2053.8791.2054.3381.4792.5409.9583.8114z" fill="#252f3e"/><path d="m16.4942 22.4955c-1.0266-.2028-2.1217-.2028-3.0799-.2028-2.9431 0-5.33865.7438-7.18664 2.2991-1.84798 1.4876-2.66931 3.5162-2.66931 5.9506 0 2.3667.68444 4.1925 2.12176 5.6125s3.35375 2.0962 5.81769 2.0962c3.4222 0 6.2969-1.3524 8.624-3.9896.2737.6762.5475 1.2172.8897 1.6905.2738.4734.6845.9467 1.0267 1.3525.2738.2704.5476.4057.8898.4057.2053 0 .4791-.0676.7529-.2705l1.8479-1.2172c.4107-.2705.5476-.5409.5476-.879 0-.2029-.0685-.4058-.2053-.6763-.4107-.7438-.7529-1.42-.9583-2.0962-.2053-.6762-.2737-1.4876-.2737-2.5696v-9.4669c0-3.1105-.7529-5.4773-2.3956-7.1001-1.6426-1.6229-4.1066-2.3668-7.6657-2.3668-1.6426 0-3.1484.2029-4.58572.541-1.36888.4057-2.60087.7438-3.62753 1.3524-.41066.2029-.68444.4057-.75288.541-.20534.2028-.20533.6086-.20533 1.0819v1.42c0 .541.20533.9467.54755.9467.06844 0 .27377 0 .4791-.0676.20534-.0676.54756-.2029 1.02666-.4057 1.02666-.4057 2.12176-.7438 3.14845-.9467 1.0266-.2705 2.1217-.4057 3.1484-.4057 2.3271 0 3.8328.4733 4.7911 1.3524.9582.8791 1.3688 2.4343 1.3688 4.6658v2.0963c-1.2319-.3382-2.2586-.541-3.4222-.7439zm3.3538 5.1392c0 .9467-.0684 1.8258-.2738 2.4343-.2053.6762-.4791 1.3525-.9582 1.8258-.7529.8791-1.7111 1.4877-2.8062 1.8258-1.0267.4057-2.1218.5409-3.08.5409-1.3688 0-2.3955-.4057-3.07994-1.0143-.68444-.6762-1.02666-1.6905-1.02666-3.0429 0-1.42.47911-2.5696 1.4373-3.3134.9582-.7439 2.3956-1.1496 4.312-1.1496.8898 0 1.848.0676 2.8062.2029.9582.0676 1.848.2705 2.6693.4733z" fill="#252f3e"/><path d="m34.6318 36.0194c.2054.5409.4107.9466.5476 1.1495.2053.2029.5475.2705 1.1635.2705h2.464c.5476 0 .9582-.0676 1.1636-.2705.2053-.2029.4106-.541.5475-1.1495l4.5173-18.6633 4.5857 18.6633c.0685.5409.2738.9466.5476 1.1495.2053.2029.6844.2705 1.1635.2705h2.464c.4791 0 .8898-.0676 1.1636-.2705.2053-.2029.4791-.541.5475-1.1495l7.1182-22.3149c.0684-.2704.2053-.5409.2053-.6762 0-.2028.0684-.2705.0684-.4733 0-.4734-.2053-.6762-.6844-.6762h-2.6693c-.5476 0-.9582.0676-1.1636.2705-.2053.2028-.2737.6085-.4791 1.1495l-5.0648 19.4071-4.7226-19.4747c-.0685-.541-.2738-.9467-.5476-1.1496-.2053-.2028-.6844-.2704-1.1635-.2704h-2.3956c-.5475 0-.9582.0676-1.1635.2704-.2053.2029-.4107.541-.5476 1.1496l-4.5857 19.1366-4.928-19.1366c-.2053-.541-.4106-.9467-.5475-1.1496-.1369-.2028-.5476-.2704-1.1635-.2704h-2.8747c-.4791 0-.6844.2028-.6844.6762 0 .2028.0684.5409.2737 1.1495z" fill="#252f3e"/><path d="m78.0249 50.0168c-10.7456 4.5306-22.518 6.6944-33.1268 6.6944-15.8105 0-31.1419-4.2601-43.53024-11.4279-1.026661-.6762-1.916431.4734-.958217 1.3525 11.498557 10.2107 26.624657 16.3642 43.530257 16.3642 11.9777 0 25.9402-3.7192 35.6593-10.8193 1.3688-1.082.0684-2.7725-1.5743-2.1639z" fill="#f90"/><path d="m72.0019 46.095c-.8897.541-.6844 1.42.2054 1.3524 3.0799-.4057 10.0612-1.2172 11.2247.4057 1.232 1.4877-1.3688 7.9793-2.4639 10.887-.4107.8791.4106 1.2171 1.2319.5409 5.2018-4.2601 6.5022-13.2536 5.4755-14.4708-1.0951-1.4876-10.1981-2.502-15.6736 1.2848z" fill="#f90"/></g><path d="m177.772 5.28003h20.014l-20.775 61.55817c-.214.6327-.621 1.1825-1.163 1.5719-.543.3895-1.194.5989-1.861.599h-15.576c-.506 0-1.004-.1204-1.455-.3514-.45-.2309-.838-.5657-1.133-.9767-.295-.4109-.488-.8862-.563-1.3866-.075-.5003-.03-1.0113.132-1.4906l19.356-57.35291c.214-.63274.621-1.18255 1.163-1.57199.542-.38945 1.193-.5989 1.861-.59887z" fill="url(#a)"/><path d="m206.855 46.5691h-31.737c-.295-.0001-.583.0887-.827.2546-.244.166-.432.4015-.54.676-.108.2744-.131.575-.066.8628.065.2877.215.5491.431.7503l20.394 19.0339c.593.5541 1.375.8623 2.187.8623h17.97z" fill="#0078d4"/><path d="m177.772 5.28005c-.675-.00251-1.333.21082-1.878.60886s-.949.95993-1.152 1.60363l-19.326 57.25926c-.173.4811-.227.9967-.158 1.5031.069.5065.259.989.553 1.4066.295.4176.686.7581 1.14.9927.454.2345.958.3563 1.469.3549h15.978c.595-.1063 1.151-.3688 1.612-.7606.461-.3917.809-.8988 1.009-1.4692l3.854-11.3573 13.766 12.8396c.577.4773 1.301.7412 2.049.7475h17.904l-7.853-22.4399-22.891.0052 14.011-41.29435z" fill="url(#b)"/><path d="m203.335 7.44742c-.213-.6317-.619-1.1806-1.161-1.56942-.541-.38882-1.191-.59796-1.858-.59797h-22.305c.667-.00001 1.317.20912 1.858.59794.542.38881.948.93773 1.161 1.56945l19.358 57.35608c.162.4793.207.9903.132 1.4907-.075.5003-.268.9757-.563 1.3866-.295.411-.684.7458-1.134.9768s-.948.3514-1.454.3515h22.305c.506-.0001 1.004-.1206 1.454-.3516.451-.231.839-.5658 1.134-.9768.295-.4109.488-.8863.563-1.3866s.03-1.0113-.132-1.4906z" fill="url(#c)"/><path d="m341.236 21.3181 2.577.0481 7.004-7.0044.341-2.9662c-5.565-4.95251-12.889-7.96689-20.908-7.96689-14.521 0-26.766 9.87439-30.397 23.26189.765-.5294 2.397-.1356 2.397-.1356l14-2.3013s.726-1.19 1.081-1.1156c3.202-3.5044 7.809-5.7094 12.919-5.7094 4.156 0 7.98 1.4613 10.986 3.8894z" fill="#ea4335"/><path d="m360.656 26.7081c-1.623-6.0025-4.983-11.2962-9.502-15.3169l-9.923 9.9225c3.973 3.2113 6.519 8.12 6.519 13.615v1.75c4.826 0 8.75 3.9244 8.75 8.75 0 4.8257-3.924 8.75-8.75 8.75h-17.5l-1.75 1.7588v10.5l1.75 1.7412h17.5c12.543 0 22.75-10.2068 22.75-22.75 0-7.7568-3.903-14.6125-9.844-18.7206z" fill="#4285f4"/><path d="m312.75 68.1787h17.487v-14h-17.487c-1.286 0-2.502-.2843-3.605-.7875l-2.52.7744-7.009 7.0088-.612 2.3668c3.819 2.905 8.584 4.6375 13.746 4.6375z" fill="#34a853"/><path d="m312.75 22.6787c-12.543 0-22.75 10.2069-22.75 22.75 0 7.385 3.539 13.9606 9.012 18.1169l10.146-10.1456c-3.036-1.3738-5.158-4.4275-5.158-7.9713 0-4.8256 3.924-8.75 8.75-8.75 3.544 0 6.597 2.1219 7.971 5.1581l10.146-10.1456c-4.156-5.4731-10.732-9.0125-18.117-9.0125z" fill="#fbbc05"/></svg>