<?xml version="1.0" encoding="utf-8"?><svg fill="none" height="27" viewBox="0 0 173 27" width="173" xmlns="http://www.w3.org/2000/svg" xmlns:xlink="http://www.w3.org/1999/xlink"><clipPath id="a"><path d="m0 0h173v27h-173z"/></clipPath><g clip-path="url(#a)"><path d="m57.3268 19.9525c.4908-.4803 1.0552-1.4155.9815-2.8564-.1472-3.109-3.0919-3.4629-5.055-3.7157-2.454-.278-2.8466-.5561-2.8712-1.3144 0-.9605 1.2761-1.4408 2.4295-1.3902 2.184.0758 4.1471.8341 4.1471.8341l.7853-2.50238c-.0982-.02529-2.3067-.73304-4.8588-.80887-2.6503-.07584-5.0797 1.18802-5.0061 3.91795.0491 3.286 3.092 3.6399 5.0797 3.8673 2.2576.2781 2.8711.5309 2.9202 1.2387.0245.5308 0 1.9463-3.1901 1.6935-2.1104-.177-4-1.1627-4.0245-1.1881l-1.0552 2.2751c.1227.0505 2.4294 1.2132 5.1288 1.289 1.3741.0506 3.3373-.0252 4.5888-1.3396zm9.1716 1.3144c2.4049 0 4.7853-1.0111 4.7853-1.0111l-.6381-2.2497s-2.1104.8595-4.049.8595c-2.4785 0-3.73-1.6177-3.73-3.1596h9.0796l.0005-1.4967c.0055-.4624-.0445-6.01065-5.571-6.01065-5.1223 0-6.1051 4.55795-6.1342 6.41135l-.0007.0849c0 1.6935.6381 6.572 6.2576 6.572zm2.9693-7.8106h-6.5765s.2944-2.7552 3.4845-2.7552c3.2637 0 3.092 2.7552 3.092 2.7552zm8.0919 7.6084v-7.9118c0-.8847 1.1042-2.0727 2.2085-2.0727h4.2699v-2.65406h-3.9018c-2.2085 0-2.7729 2.07276-2.7729 2.45186l-.1473-2.45186h-2.4048v12.63856zm16.1408 0 3.9018-12.63856h-2.6257l-3.2392 10.18666-2.8957-10.18666h-2.7729l3.7299 12.63856zm11.6006.2022c2.406 0 4.786-1.0111 4.786-1.0111l-.639-2.2497s-2.109.8595-4.048.8595c-2.479 0-3.73-1.6177-3.73-3.1596h9.079v-1.4967c.007-.4624-.044-6.01065-5.57-6.01065-5.123 0-6.1055 4.55795-6.1345 6.41135l-.0006.0849c0 1.6935.638 6.572 6.2571 6.572zm2.97-7.8106h-6.577s.295-2.7552 3.485-2.7552c3.264 0 3.092 2.7552 3.092 2.7552zm8.092 7.6084v-7.9118c0-.8847 1.104-2.0727 2.208-2.0727h4.269v-2.65406h-3.901c-2.208 0-2.773 2.07276-2.773 2.45186l-.147-2.45186h-2.405v12.63856zm18.103 0v-2.6541h-5.055v-15.03987h-6.552v2.32549h3.927v15.36848zm7.92.2022c2.406 0 4.786-1.0111 4.786-1.0111l-.638-2.2497s-2.11.8595-4.049.8595c-2.479 0-3.731-1.6177-3.731-3.1596h9.08l.001-1.4967c.006-.4624-.045-6.01065-5.571-6.01065-5.122 0-6.106 4.55795-6.134 6.41135l-.001.0849c0 1.6935.639 6.572 6.257 6.572zm2.97-7.8106h-6.576s.294-2.7552 3.484-2.7552c3.264 0 3.092 2.7552 3.092 2.7552zm14.055 6.4962c.49-.4803 1.055-1.4155.981-2.8564-.147-3.109-3.092-3.4629-5.055-3.7157-2.453-.278-2.846-.5561-2.871-1.3144 0-.9605 1.276-1.4408 2.43-1.3902 2.184.0758 4.147.8341 4.147.8341l.785-2.50238c-.098-.02529-2.307-.73304-4.859-.80887-2.65-.07584-5.08 1.18802-5.006 3.91795.049 3.286 3.092 3.6399 5.08 3.8673 2.257.2781 2.871.5309 2.92 1.2387.025.5308 0 1.9463-3.19 1.6935-2.11-.177-4-1.1627-4.025-1.1881l-1.055 2.2751c.123.0505 2.43 1.2132 5.129 1.289 1.374.0506 3.338-.0252 4.589-1.3396zm12.601 0c.491-.4803 1.055-1.4155.982-2.8564-.148-3.109-3.092-3.4629-5.056-3.7157-2.454-.278-2.847-.5561-2.871-1.3144 0-.9605 1.276-1.4408 2.43-1.3902 2.184.0758 4.147.8341 4.147.8341l.785-2.50238c-.098-.02529-2.307-.73304-4.859-.80887-2.65-.07584-5.079 1.18802-5.006 3.91795.05 3.286 3.092 3.6399 5.08 3.8673 2.258.2781 2.871.5309 2.92 1.2387.024.5308 0 1.9463-3.19 1.6935-2.111-.177-4-1.1627-4.024-1.1881l-1.056 2.2751c.123.0505 2.429 1.2132 5.129 1.289 1.375.0506 3.337-.0252 4.589-1.3396z" fill="#161617"/><path d="m10.412 5.61712 1.8577-5.61712h-12.2697v5.61712zm21.6256 0v-5.61712h-13.912l-1.766 5.61712zm-24.81077 9.82998 1.63464-5.61714h-8.86147v5.61714zm24.81077 0v-5.61714h-17.4303l-1.6559 5.61714zm-28.20331 10.5321 1.61892-5.6171h-5.45321v5.6171zm28.20331 0v-5.6171h-20.7106l-1.78388 5.6171z" fill="#fd5750"/></g></svg>